# AST/ASF file generated using VICON BodyLanguage
# -----------------------------------------------
:version 1.10
:name VICON
:units
  mass 1.0
  length 0.45
  angle deg
:documentation
   .ast/.asf automatically generated from VICON data using
   VICON BodyBuilder and BodyLanguage model FoxedUp or BRILLIANT.MOD
:root
   order TX TY TZ RX RY RZ
   axis XYZ
   position 0 0 0  
   orientation 0 0 0 
:bonedata
  begin
     id 1 
     name lhipjoint
     direction 0.567725 -0.736092 0.368589 
     length 2.42353 
     axis 0 0 0  XYZ
  end
  begin
     id 2 
     name lfemur
     direction 0.34202 -0.939693 0  
     length 7.24894  
     axis 0 0 20  XYZ
    dof rx ry rz
    limits (-160.0 20.0)
           (-70.0 70.0)
           (-60.0 70.0)
  end
  begin
     id 3 
     name ltibia
     direction 0.34202 -0.939693 0   
     length 7.6997   
     axis 0 0 20   XYZ
    dof rx
    limits (-10.0 170.0)
  end
  begin
     id 4 
     name lfoot
     direction 0.100767 -0.276854 0.955614   
     length 2.37556   
     axis -90 7.62852e-016 20   XYZ
    dof rx rz
    limits (-45.0 90.0)
           (-70.0 20.0)
  end
  begin
     id 5 
     name ltoes
     direction 1.53592e-011 -4.21894e-011 1   
     length 1.18363   
     axis -90 7.62852e-016 20   XYZ
    dof rx
    limits (-90.0 20.0)
  end
  begin
     id 6 
     name rhipjoint
     direction -0.556459 -0.742938 0.372017   
     length 2.4012  
     axis 0 0 0  XYZ 
  end
  begin
     id 7 
     name rfemur
     direction -0.34202 -0.939693 0   
     length 7.5119   
     axis 0 0 -20   XYZ
    dof rx ry rz
    limits (-160.0 20.0)
           (-70.0 70.0)
           (-70.0 60.0)
  end
  begin
     id 8 
     name rtibia
     direction -0.34202 -0.939693 0   
     length 7.50155   
     axis 0 0 -20   XYZ
    dof rx
    limits (-10.0 170.0)
 end
 begin
     id 9 
     name rfoot
     direction -0.118427 -0.325376 0.938139   
     length 2.32487  
     axis -90 -7.62852e-016 -20   XYZ
    dof rx rz
    limits (-45.0 90.0)
           (-20.0 70.0)
  end
  begin
     id 10 
     name rtoes
     direction -1.53525e-011 -4.21868e-011 1   
     length 1.15233   
     axis -90 -7.62852e-016 -20   XYZ
    dof rx
    limits (-90.0 20.0)
  end
  begin
     id 11 
     name lowerback
     direction 0.0287568 0.999577 -0.00434502   
     length 2.15243   
     axis 0 0 0   XYZ
    dof rx ry rz
    limits (-20.0 45.0)
           (-30.0 30.0)
           (-30.0 30.0)
  end
  begin
     id 12 
     name upperback
     direction 0.0294009 0.99956 0.00404628   
     length 2.15427   
     axis 0 0 0   XYZ
    dof rx ry rz
    limits (-20.0 45.0)
           (-30.0 30.0)
           (-30.0 30.0)
  end
  begin
     id 13 
     name thorax
     direction 0.0151014 0.999868 0.0059419   
     length 2.14898   
     axis 0 0 0   XYZ
    dof rx ry rz
    limits (-20.0 45.0)
           (-30.0 30.0)
           (-30.0 30.0)
  end
  begin
     id 14 
     name lowerneck
     direction -0.0249197 0.989906 0.139515   
     length 1.6861   
     axis 0 0 0   XYZ
    dof rx ry rz
    limits (-20.0 45.0)
           (-30.0 30.0)
           (-30.0 30.0)
  end
  begin
     id 15 
     name upperneck
     direction 0.0438463 0.988795 -0.142693   
     length 1.71276   
     axis 0 0 0   XYZ
    dof rx ry rz
    limits (-20.0 45.0)
           (-30.0 30.0)
           (-30.0 30.0)
  end
  begin
     id 16
     name head
     direction 0.0148499 0.997845 -0.0639186  
     length 1.7209  
     axis 0 0 0   XYZ
    dof rx ry rz
    limits (-20.0 45.0)
           (-30.0 30.0)
           (-30.0 30.0)
  end
  begin
     id 17 
     name lclavicle
     direction 0.940298 0.323464 -0.105876  
     length 3.9048  
     axis 0 0 0   XYZ
    dof ry rz
    limits (-20.0 10.0)
           (0.0 20.0)
  end
  begin
     id 18 
     name lhumerus
     direction 1 -4.48954e-011 -4.9675e-028   
     length 4.6851   
     axis 180 -30 -90   XYZ
    dof rx ry rz
    limits (-60.0 90.0)
           (-90.0 90.0)
           (-90.0 90.0)
  end
  begin
     id 19
     name lradius
     direction 1 -4.48992e-011 -1.03359e-026   
     length 3.39626   
     axis 180 -30 -90   XYZ
    dof rx
    limits (-10.0 170.0)
  end
  begin
     id 20
     name lwrist
     direction 1 -4.48906e-011 -1.67336e-026   
     length 1.69813   
     axis 9.90442e-015 90 90   XYZ
    dof ry
    limits (-180.0 0.0)
 end
  begin
     id 21 
     name lhand
     direction 1 -4.49006e-011 -3.34673e-026   
     length 0.486078   
     axis 2.1355e-014 90 90   XYZ
    dof rx rz
    limits (-90.0 90.0)
           (-45.0 45.0)
  end
  begin
     id 22 
     name lfingers
     direction 1 -4.48992e-011 -6.69345e-026   
     length 0.391889   
     axis 4.27099e-014 90 90   XYZ
    dof rx
    limits (0.0 90.0)
  end
  begin
     id 23
     name lthumb
     direction 0.707107 -6.34926e-011 0.707107   
     length 0.562676   
     axis -90 45 2.85299e-015   XYZ
    dof rx rz
    limits (-45.0 45.0)
           (-45.0 45.0)
  end
  begin
     id 24 
     name rclavicle
     direction -0.882459 0.414895 -0.221648   
     length 3.44646  
     axis 0 0 0   XYZ 
    dof ry rz
    limits (-10.0 20.0)
           (-20.0 0.0)
  end
  begin
     id 25 
     name rhumerus
     direction -1 -4.48962e-011 -2.37984e-027  
     length 5.55576   
     axis 180 30 90   XYZ
    dof rx ry rz
    limits (-90.0 60.0)
           (-90.0 90.0)
           (-90.0 90.0)
  end
  begin
     id 26 
     name rradius
     direction -1 -4.48982e-011 -6.86791e-027   
     length 3.32774   
     axis 180 30 90   XYZ
    dof rx
    limits (-10.0 170.0)
  end
  begin
     id 27 
     name rwrist
     direction -1 -4.48961e-011 -1.67336e-026   
     length 1.66387   
     axis 9.90442e-015 -90 -90   XYZ
    dof ry
    limits (-180.0 0.0)
  end
  begin
     id 28
     name rhand
     direction -1 -4.4897e-011 -3.34673e-026   
     length 0.507628   
     axis 2.1355e-014 -90 -90   XYZ
    dof rx rz
    limits (-90.0 90.0)
           (-45.0 45.0)
  end
  begin
     id 29
     name rfingers
     direction -1 -4.48854e-011 -6.69345e-026   
     length 0.409263   
     axis 4.27099e-014 -90 -90   XYZ
    dof rx
    limits (0.0 90.0)
  end
  begin
     id 30
     name rthumb
     direction -0.707107 -6.34913e-011 0.707107   
     length 0.587622   
     axis -90 -45 -2.85299e-015   XYZ
    dof rx rz
    limits (-45.0 45.0)
           (-45.0 45.0)
  end
:hierarchy
  begin
    root lhipjoint rhipjoint lowerback
    lhipjoint lfemur
    lfemur ltibia
    ltibia lfoot
    lfoot ltoes
    rhipjoint rfemur
    rfemur rtibia
    rtibia rfoot
    rfoot rtoes
    lowerback upperback
    upperback thorax
    thorax lowerneck lclavicle rclavicle
    lowerneck upperneck
    upperneck head
    lclavicle lhumerus
    lhumerus lradius
    lradius lwrist
    lwrist lhand lthumb
    lhand lfingers
    rclavicle rhumerus
    rhumerus rradius
    rradius rwrist
    rwrist rhand rthumb
    rhand rfingers
  end

#!OML:ASF E:\motion texture\Top Level 1\Subject 1\Session 1\male.ASF
:FULLY-SPECIFIED
:DEGREES
48
root 27.2731 17.7351 5.45961 58.6393 -86.8755 -49.8263
lowerback -0.396959 -1.04826 0.971213
upperback -1.87992 -1.40492 3.51269
thorax -1.64105 -0.714363 3.0795
lowerneck -12.8463 -3.17869 -7.34981
upperneck 12.3309 -3.1409 1.35213
head 5.98984 -1.78309 1.33743
rclavicle 6.80837e-015 -3.97569e-014
rhumerus -22.139 1.53722 -77.2225
rradius 38.8765
rwrist 5.30885
rhand -14.9791 -33.8582
rfingers 7.12502
rthumb 11.1849 -63.5401
lclavicle 6.80837e-015 -3.97569e-014
lhumerus -7.36539 -12.7164 79.4896
lradius 48.1787
lwrist -15.6872
lhand -19.9933 19.4419
lfingers 7.12502
lthumb 6.34631 49.3268
rfemur -29.7692 0.542556 20.7978
rtibia 21.4023
rfoot 1.57549 -12.6189
rtoes 16.4257
lfemur 0.618394 -8.94055 -15.3693
ltibia 30.2769
lfoot -1.76285 -2.70959
ltoes -27.7471
49
root 27.1127 17.755 5.41986 58.1583 -86.492 -49.3206
lowerback -0.409067 -1.13888 1.27231
upperback -1.89899 -1.52785 3.69775
thorax -1.65126 -0.781592 3.10286
lowerneck -12.8347 -3.16248 -7.35514
upperneck 12.343 -3.11287 1.30584
head 5.99 -1.77394 1.32621
rclavicle 2.12203e-014 -2.94201e-014
rhumerus -23.2219 0.360319 -77.3201
rradius 36.919
rwrist 6.24105
rhand -15.139 -33.5374
rfingers 7.12502
rthumb 11.0307 -63.2276
lclavicle 2.12203e-014 -2.94201e-014
lhumerus -8.44788 -13.4612 79.6577
lradius 46.1188
lwrist -18.109
lhand -18.9678 19.5266
lfingers 7.12502
lthumb 7.33624 49.3794
rfemur -29.1856 0.699573 21.2935
rtibia 21.41
rfoot 1.18556 -12.7376
rtoes 17.0834
lfemur -0.260969 -8.81146 -14.8058
ltibia 31.9974
lfoot 0.282055 -2.86016
ltoes -26.8112
50
root 26.9535 17.7735 5.38123 57.3217 -86.0996 -48.462
lowerback -0.460952 -1.23668 1.57489
upperback -1.88809 -1.6631 3.87242
thorax -1.6086 -0.855247 3.11321
lowerneck -12.8418 -3.14963 -7.33745
upperneck 12.3377 -3.09187 1.2602
head 5.98766 -1.76647 1.3107
rclavicle 7.55382e-015 -1.66979e-014
rhumerus -24.2263 -0.859826 -77.3293
rradius 34.9325
rwrist 7.18098
rhand -15.205 -33.093
rfingers 7.12502
rthumb 10.9671 -62.7866
lclavicle 7.55382e-015 -1.66979e-014
lhumerus -9.49651 -14.1576 79.8867
lradius 44.0551
lwrist -20.6265
lhand -17.8186 19.3555
lfingers 7.12502
lthumb 8.44537 49.1666
rfemur -28.5971 0.826007 21.7743
rtibia 21.4154
rfoot 0.702965 -12.9196
rtoes 17.5417
lfemur -1.21268 -8.67478 -14.2612
ltibia 33.7969
lfoot 2.41704 -2.98477
ltoes -25.2866
51
root 26.7958 17.7904 5.34369 56.2296 -85.6994 -47.366
lowerback -0.494894 -1.34127 1.86512
upperback -1.87206 -1.8075 4.04497
thorax -1.57065 -0.933238 3.12874
lowerneck -12.8485 -3.13889 -7.31077
upperneck 12.3363 -3.07521 1.21278
head 5.98649 -1.7609 1.29277
rclavicle 1.05356e-014 -6.83819e-014
rhumerus -25.2017 -2.10333 -77.2388
rradius 32.9573
rwrist 8.06164
rhand -15.1233 -32.6597
rfingers 7.12502
rthumb 11.0458 -62.3491
lclavicle 1.05356e-014 -6.83819e-014
lhumerus -10.5583 -14.7825 80.1996
lradius 42.004
lwrist -23.1835
lhand -16.6614 18.924
lfingers 7.12502
lthumb 9.56202 48.687
rfemur -27.9862 0.919174 22.2395
rtibia 21.4111
rfoot 0.16454 -13.155
rtoes 17.7814
lfemur -2.20217 -8.53436 -13.7399
ltibia 35.6527
lfoot 4.58574 -3.08951
ltoes -23.1798
52
root 26.6397 17.8056 5.30733 55.1671 -85.291 -46.3277
lowerback -0.489389 -1.44592 2.15709
upperback -1.8572 -1.95054 4.21302
thorax -1.55686 -1.01051 3.13995
lowerneck -12.8435 -3.13117 -7.25876
upperneck 12.344 -3.06689 1.15386
head 5.98601 -1.75934 1.26647
rclavicle -2.38542e-014 6.91771e-014
rhumerus -26.1726 -3.36973 -77.0529
rradius 31.0238
rwrist 8.83089
rhand -14.9373 -32.1783
rfingers 7.12502
rthumb 11.2253 -61.8579
lclavicle -2.38542e-014 6.91771e-014
lhumerus -11.6415 -15.3087 80.597
lradius 39.9673
lwrist -25.7287
lhand -15.5946 18.2634
lfingers 7.12502
lthumb 10.5913 47.9765
rfemur -27.3467 0.980137 22.7053
rtibia 21.3994
rfoot -0.392004 -13.4125
rtoes 17.7991
lfemur -3.20282 -8.39665 -13.2397
ltibia 37.5486
lfoot 6.72855 -3.14337
ltoes -20.523
53
root 26.4852 17.8188 5.2724 54.2183 -84.8829 -45.4318
lowerback -0.447162 -1.54596 2.3908
upperback -1.83753 -2.08681 4.42291
thorax -1.55601 -1.08375 3.2285
lowerneck -12.8486 -3.1281 -7.22418
upperneck 12.365 -3.05594 1.05954
head 5.9912 -1.7605 1.23172
rclavicle 2.68359e-015 2.38542e-015
rhumerus -27.1269 -4.60426 -76.7098
rradius 29.1553
rwrist 9.45138
rhand -14.6123 -31.7274
rfingers 7.12502
rthumb 11.5386 -61.3898
lclavicle 2.68359e-015 2.38542e-015
lhumerus -12.7327 -15.6428 81.141
lradius 37.9381
lwrist -28.2277
lhand -14.6064 17.4921
lfingers 7.12502
lthumb 11.5443 47.1542
rfemur -26.6839 1.01057 23.1706
rtibia 21.3865
rfoot -0.932295 -13.6646
rtoes 17.6614
lfemur -4.20359 -8.25071 -12.7654
ltibia 39.4616
lfoot 8.77935 -3.12874
ltoes -17.4868
54
root 26.3323 17.8301 5.23854 53.6056 -84.4743 -44.9006
lowerback -0.381673 -1.63939 2.65099
upperback -1.80738 -2.21329 4.62087
thorax -1.55934 -1.15254 3.29069
lowerneck -12.849 -3.12552 -7.16513
upperneck 12.3912 -3.05172 0.97319
head 5.99722 -1.76322 1.19501
rclavicle 2.22639e-014 6.36111e-015
rhumerus -28.0753 -5.87719 -76.2881
rradius 27.3526
rwrist 9.99789
rhand -14.1799 -31.2663
rfingers 7.12502
rthumb 11.9556 -60.9049
lclavicle 2.22639e-014 6.36111e-015
lhumerus -13.8253 -15.7928 81.7256
lradius 35.9277
lwrist -30.6248
lhand -13.8423 16.6394
lfingers 7.12502
lthumb 12.2812 46.2588
rfemur -26.0025 1.0385 23.6543
rtibia 21.3766
rfoot -1.45054 -13.9041
rtoes 17.3949
lfemur -5.19714 -8.07791 -12.2943
ltibia 41.3749
lfoot 10.6192 -3.0208
ltoes -14.3968
55
root 26.1803 17.8396 5.20559 53.2633 -84.0699 -44.6632
lowerback -0.306328 -1.72352 2.92163
upperback -1.76673 -2.32717 4.81353
thorax -1.55869 -1.21523 3.34197
lowerneck -12.8415 -3.12637 -7.09794
upperneck 12.4201 -3.0567 0.903434
head 6.00316 -1.76875 1.16154
rclavicle -3.68746e-014 6.04305e-014
rhumerus -29.0275 -7.21512 -75.7584
rradius 25.6055
rwrist 10.5955
rhand -13.6703 -30.7188
rfingers 7.12502
rthumb 12.447 -60.3281
lclavicle -3.68746e-014 6.04305e-014
lhumerus -14.9029 -15.6943 82.3416
lradius 33.9244
lwrist -32.9289
lhand -12.9723 15.9084
lfingers 7.12502
lthumb 13.1199 45.4757
rfemur -25.3021 1.08047 24.153
rtibia 21.3671
rfoot -1.95556 -14.1359
rtoes 17.0611
lfemur -6.17724 -7.86464 -11.8245
ltibia 43.2601
lfoot 12.1355 -2.8362
ltoes -11.6051
56
root 26.0295 17.8478 5.17381 53.2476 -83.6779 -44.7734
lowerback -0.229134 -1.79814 3.22651
upperback -1.70967 -2.42862 4.98752
thorax -1.54506 -1.27209 3.35461
lowerneck -12.8307 -3.12725 -7.01525
upperneck 12.4478 -3.06823 0.858332
head 6.00843 -1.77465 1.1329
rclavicle 3.78685e-014 -7.87187e-014
rhumerus -29.9799 -8.65482 -75.1268
rradius 23.9185
rwrist 11.369
rhand -13.0656 -30.1375
rfingers 7.12502
rthumb 13.03 -59.7106
lclavicle 3.78685e-014 -7.87187e-014
lhumerus -15.9472 -15.2921 82.9334
lradius 31.9329
lwrist -35.0949
lhand -11.9977 15.2934
lfingers 7.12502
lthumb 14.0592 44.7978
rfemur -24.5872 1.13306 24.6711
rtibia 21.3599
rfoot -2.47104 -14.3505
rtoes 16.7784
lfemur -7.14502 -7.60154 -11.3565
ltibia 45.1124
lfoot 13.1918 -2.5825
ltoes -9.50894
57
root 25.8795 17.8551 5.14261 53.4014 -83.3123 -45.0648
lowerback -0.150191 -1.86359 3.54893
upperback -1.64859 -2.51708 5.12978
thorax -1.53123 -1.32243 3.32471
lowerneck -12.7962 -3.12754 -6.93607
upperneck 12.4708 -3.08884 0.874082
head 6.00943 -1.78017 1.1237
rclavicle -1.31198e-014 3.18055e-014
rhumerus -30.9657 -10.2361 -74.377
rradius 22.2958
rwrist 12.4572
rhand -12.387 -29.5288
rfingers 7.12502
rthumb 13.6841 -59.059
lclavicle -1.31198e-014 3.18055e-014
lhumerus -16.9688 -14.5411 83.4588
lradius 29.9466
lwrist -37.1553
lhand -11.0128 14.7796
lfingers 7.12502
lthumb 15.0082 44.2157
rfemur -23.8596 1.21165 25.1863
rtibia 21.3464
rfoot -2.98298 -14.5608
rtoes 16.5098
lfemur -8.09925 -7.28168 -10.9032
ltibia 46.908
lfoot 13.7264 -2.29169
ltoes -8.25584
58
root 25.7301 17.8619 5.11219 53.6387 -82.9887 -45.444
lowerback -0.0903181 -1.92449 3.86296
upperback -1.567 -2.60144 5.24986
thorax -1.48675 -1.37006 3.27534
lowerneck -12.7822 -3.12857 -6.85891
upperneck 12.4879 -3.11234 0.919637
head 6.01249 -1.78449 1.12383
rclavicle -1.14301e-014 2.78299e-014
rhumerus -31.9526 -11.9568 -73.4836
rradius 20.7366
rwrist 13.9555
rhand -11.6872 -28.8678
rfingers 7.12502
rthumb 14.3585 -58.3512
lclavicle -1.14301e-014 2.78299e-014
lhumerus -17.9244 -13.3276 83.8785
lradius 27.9629
lwrist -39.1169
lhand -9.99721 14.413
lfingers 7.12502
lthumb 15.9863 43.7734
rfemur -23.1238 1.2896 25.6805
rtibia 21.3182
rfoot -3.49708 -14.747
rtoes 16.3014
lfemur -9.04741 -6.91048 -10.4889
ltibia 48.6417
lfoot 13.785 -1.96927
ltoes -7.61608
